<?xml version="1.0" standalone="no"?>
<!DOCTYPE svg PUBLIC "-//W3C//DTD SVG 20010904//EN"
 "http://www.w3.org/TR/2001/REC-SVG-20010904/DTD/svg10.dtd">
<svg version="1.0" xmlns="http://www.w3.org/2000/svg"
 width="230.000000pt" height="274.000000pt" viewBox="0 0 230.000000 274.000000"
 preserveAspectRatio="xMidYMid meet">

<g transform="translate(0.000000,274.000000) scale(0.100000,-0.100000)"
fill="#000000" stroke="none">
<path d="M1029 2704 c-7 -8 -36 -27 -63 -41 -60 -30 -92 -57 -112 -95 -24 -46
-16 -44 14 3 28 42 122 110 110 78 -8 -20 -41 -122 -44 -135 -1 -7 -23 -19
-48 -27 l-46 -16 -1 27 c-2 27 -2 27 -6 2 -3 -14 -14 -37 -24 -51 -25 -36 -24
-47 5 -55 21 -5 24 -10 21 -42 -3 -21 -2 -29 1 -19 4 14 17 17 70 17 62 0 64
1 54 20 -10 18 -8 20 29 20 22 0 47 3 57 7 14 5 16 2 12 -21 -5 -27 -5 -28 31
-19 20 4 66 7 104 6 37 -1 67 1 67 3 0 3 -12 16 -26 29 l-27 25 31 0 c21 0 38
-9 56 -30 27 -32 34 -62 39 -149 1 -30 7 -56 12 -58 6 -2 19 22 30 53 11 31
25 55 30 54 13 -2 7 -33 -8 -42 -6 -4 -11 -23 -11 -42 0 -20 -4 -36 -9 -36 -4
0 -5 -5 -2 -10 4 -6 11 -7 17 -4 7 5 8 2 3 -5 -5 -9 -10 -10 -18 -2 -27 27
-37 11 -37 -58 0 -65 -2 -71 -31 -95 -17 -15 -79 -50 -138 -78 -92 -44 -115
-51 -171 -52 -58 -1 -66 1 -75 22 -5 12 -17 22 -25 22 -9 0 -21 5 -28 12 -18
18 -14 -3 4 -23 15 -17 15 -20 -9 -49 -14 -16 -28 -39 -32 -50 -3 -11 -9 -20
-13 -20 -4 0 -7 -16 -8 -35 l-1 -35 21 19 21 20 1 -112 c1 -76 8 -139 22 -197
11 -47 19 -86 17 -89 -2 -2 -24 8 -49 23 -60 35 -123 36 -164 1 -16 -13 -32
-22 -36 -18 -16 16 4 221 29 309 5 16 4 15 -4 -1 -5 -11 -13 -29 -17 -40 -7
-17 -9 -15 -12 13 -3 28 -6 31 -18 21 -8 -6 -14 -27 -14 -45 0 -19 -5 -34 -11
-34 -5 0 -8 3 -6 8 3 4 -1 13 -9 20 -16 14 -20 8 -34 -52 -8 -30 -8 -30 -9 11
-1 51 29 91 91 122 32 16 44 18 50 8 6 -9 8 -9 8 0 0 7 26 26 58 43 84 45 22
26 -83 -25 -118 -57 -128 -69 -136 -158 -7 -88 -61 -231 -99 -267 -50 -47 -63
-85 -57 -169 2 -42 7 -83 11 -92 5 -12 -3 -18 -34 -28 -45 -13 -46 -17 -25
-106 8 -32 12 -61 10 -63 -6 -6 -55 84 -85 156 -81 192 -79 428 4 634 88 216
285 402 504 473 28 9 52 21 52 26 0 27 -35 129 -44 129 -23 -1 -182 -71 -245
-109 -213 -127 -379 -349 -442 -591 -42 -165 -36 -414 16 -559 14 -40 14 -40
-20 -74 -45 -45 -61 -105 -46 -177 32 -156 165 -234 261 -153 28 23 30 23 54
7 30 -19 28 -27 -15 -44 -29 -12 -31 -16 -25 -52 10 -64 53 -187 77 -223 50
-72 133 -87 193 -35 61 54 66 141 19 328 -14 56 -18 63 -36 58 -11 -3 -30 0
-41 6 -20 11 -19 12 14 24 53 19 57 17 85 -29 22 -39 26 -63 37 -200 l12 -157
37 0 c68 0 99 11 100 34 l0 21 15 -21 c15 -21 17 -21 71 -7 30 8 62 12 70 9 8
-3 39 -3 69 0 l54 7 0 131 c0 72 3 148 6 168 9 55 28 48 21 -7 l-7 -45 51 0
c48 0 51 -1 46 -22 -3 -13 -9 -68 -13 -123 l-7 -100 49 3 c102 6 95 -4 88 132
l-7 119 44 3 c42 3 43 4 51 43 4 22 10 50 13 62 5 21 2 23 -35 23 -34 0 -40 3
-40 20 0 14 10 25 29 33 34 14 65 50 86 99 14 33 14 32 15 -41 l0 -73 48 6
c108 15 105 13 98 60 -6 41 -6 42 28 54 78 28 123 123 92 196 -16 38 -67 76
-103 76 -20 0 -19 7 33 121 31 67 53 123 51 126 -3 2 -31 -50 -63 -116 -31
-67 -61 -121 -66 -121 -13 0 -2 32 57 155 65 134 79 184 70 244 -14 98 -54
153 -149 205 -47 25 -50 26 -69 9 -10 -10 -31 -38 -45 -63 -15 -25 -41 -65
-60 -89 -18 -24 -36 -57 -39 -72 -6 -32 -173 -193 -208 -202 -16 -4 -17 -5 -2
-6 9 0 17 -6 17 -11 0 -15 -27 -23 -47 -16 -14 6 -15 9 -4 15 8 5 -4 8 -30 8
-24 -1 -66 2 -94 5 -48 7 -49 7 -10 -3 162 -42 279 -85 270 -99 -3 -5 5 -16
17 -24 12 -9 18 -16 13 -16 -5 0 -4 -5 3 -12 17 -17 15 -26 -10 -34 -13 -4
-34 -15 -46 -25 -24 -18 -24 -18 -99 34 -42 29 -84 58 -94 66 -11 7 -19 11
-19 8 0 -5 119 -108 153 -132 18 -12 19 -18 9 -40 -8 -16 -20 -25 -35 -25 -20
0 -23 4 -19 34 3 30 0 36 -24 49 -47 23 -92 28 -134 13 -33 -11 -42 -11 -60 1
-11 8 -20 19 -20 25 0 14 -101 130 -108 123 -3 -2 3 -14 13 -25 25 -27 11 -25
-28 4 -18 13 -51 33 -74 45 -24 12 -43 25 -43 30 0 5 16 23 35 40 47 41 93 41
170 1 61 -32 96 -40 76 -17 -8 10 -7 17 1 25 8 8 11 40 10 87 -2 69 -1 75 23
91 14 9 22 20 19 25 -3 5 1 6 8 4 8 -3 22 2 33 10 19 15 19 16 -5 5 -24 -11
-24 -10 -6 4 11 9 25 16 31 16 14 0 45 52 45 77 1 16 2 16 10 1 19 -32 -22
-88 -113 -150 -21 -15 -26 -27 -29 -80 -2 -35 -3 -65 -1 -67 6 -9 107 87 148
142 45 59 272 297 284 297 3 0 31 -7 61 -15 30 -8 62 -14 70 -14 14 1 -8 8
-92 30 -26 7 -38 15 -38 28 0 9 -11 28 -24 41 -33 30 -42 73 -22 102 10 14 16
43 16 76 0 44 3 53 15 48 9 -3 24 3 35 14 22 22 27 46 8 34 -7 -4 -8 -3 -4 5
4 6 12 9 17 6 5 -4 14 6 19 21 12 31 -3 89 -25 102 -8 4 -17 27 -21 51 -7 42
-6 44 14 39 19 -5 22 -2 22 23 0 16 -6 32 -14 35 -8 3 -17 23 -21 44 -8 47
-56 124 -87 141 -19 10 -18 6 8 -22 35 -37 57 -78 68 -123 7 -28 6 -28 -26
-22 -18 3 -77 9 -130 12 -56 4 -98 11 -98 17 0 27 54 98 95 123 25 16 43 34
42 39 -4 11 -65 55 -77 55 -4 0 -12 -12 -19 -27 -12 -27 -12 -27 7 -10 16 15
24 16 41 7 12 -6 21 -13 21 -17 0 -3 -25 -32 -55 -65 -30 -32 -58 -70 -61 -83
-7 -30 -34 -33 -34 -5 0 11 14 47 30 80 17 33 28 60 26 60 -10 0 -57 -89 -67
-125 l-10 -35 -59 0 c-70 0 -73 6 -39 95 31 84 60 113 117 118 l47 3 -46 2
c-32 1 -51 -3 -60 -14z m101 -226 c47 -7 108 -11 135 -10 28 1 74 -3 103 -9
41 -8 52 -14 52 -30 0 -23 -28 -24 -80 -4 -25 10 -29 14 -15 15 18 1 18 2 -3
11 -13 5 -29 6 -35 2 -6 -3 -38 -6 -71 -5 -44 1 -55 -1 -41 -8 21 -9 19 -10
-35 -16 -19 -2 -76 -8 -127 -14 -114 -12 -200 -13 -207 -1 -11 18 31 53 79 66
64 17 139 18 245 3z m184 -524 c3 -9 6 -29 6 -45 0 -32 -36 -60 -135 -104 -30
-13 -55 -26 -55 -30 0 -7 65 20 108 46 47 27 64 24 22 -4 -50 -34 -153 -87
-158 -82 -3 3 1 11 8 20 9 11 9 15 1 15 -7 0 -19 -16 -27 -35 -13 -32 -18 -35
-57 -35 -23 0 -49 5 -57 10 -11 7 -17 4 -22 -13 -8 -23 -2 56 5 83 16 53 20
58 50 63 74 12 123 30 205 77 48 27 90 50 93 50 4 0 10 -7 13 -16z m-440 -149
c-21 -24 -40 -43 -42 -41 -6 6 28 69 52 94 17 19 22 21 24 8 2 -9 -14 -36 -34
-61z m666 -120 c-7 -8 -18 -15 -25 -15 -21 0 -104 -79 -121 -116 -9 -19 -20
-34 -25 -34 -16 0 27 73 63 107 18 18 51 41 73 52 49 25 51 25 35 6z m-86
-107 c-4 -7 -16 -23 -27 -35 -11 -13 -18 -25 -15 -28 3 -3 39 11 81 31 100 47
121 39 32 -13 -78 -45 -135 -66 -165 -61 -17 3 -11 12 35 61 53 55 74 71 59
45z m-921 -145 c-8 -32 -17 -68 -20 -80 -5 -23 -33 -40 -33 -21 0 18 54 158
61 158 3 0 0 -26 -8 -57z m882 -2 c50 -22 105 -84 105 -116 0 -32 -15 -32 -36
1 -22 32 -104 90 -104 72 0 -7 14 -26 30 -42 17 -16 30 -34 30 -40 0 -6 -5 -3
-11 7 -5 9 -19 17 -30 17 -14 0 -18 -4 -12 -12 4 -7 -11 2 -34 20 -56 44 -68
40 -15 -6 38 -32 45 -45 49 -85 4 -30 1 -52 -7 -62 -15 -19 -30 -10 -30 17 0
42 -86 158 -104 141 -11 -12 -6 -22 14 -28 38 -12 104 -155 72 -155 -5 0 -19
11 -32 25 -12 13 -27 23 -33 22 -6 -1 -11 3 -12 8 -1 21 -18 36 -56 51 -38 16
-38 17 -25 43 19 36 99 109 139 126 42 19 54 18 102 -4z m-794 -122 c22 -16
22 -16 -17 -23 -21 -4 -51 -14 -67 -23 -16 -8 -31 -12 -35 -9 -8 9 28 34 63
45 l30 9 -30 1 c-41 1 -132 -61 -149 -102 -8 -18 -19 -43 -24 -57 -10 -23 -11
-22 -11 17 -1 34 5 50 31 78 63 73 159 102 209 64z m826 -66 c-3 -10 -5 -2 -5
17 0 19 2 27 5 18 2 -10 2 -26 0 -35z m-743 -11 c60 -33 66 -46 29 -61 -27
-10 -26 -10 12 -8 39 2 40 1 82 -68 42 -70 51 -95 34 -95 -5 0 -17 -3 -26 -7
-15 -5 -16 -1 -10 36 7 41 6 42 -31 57 -31 13 -48 14 -94 5 -83 -16 -124 -72
-111 -153 0 -5 -2 -8 -7 -8 -21 1 -32 21 -40 70 -6 39 -12 54 -22 52 -76 -17
-73 -18 -66 24 15 76 57 135 121 168 42 22 73 20 129 -12z m151 -72 c10 -11
16 -20 13 -20 -3 0 -13 9 -23 20 -10 11 -16 20 -13 20 3 0 13 -9 23 -20z m446
3 c13 -16 12 -17 -3 -4 -17 13 -22 21 -14 21 2 0 10 -8 17 -17z m91 -70 c110
-97 46 -333 -90 -333 -125 0 -177 178 -89 304 39 55 132 71 179 29z m261 8
c63 -24 86 -96 52 -161 -16 -32 -61 -60 -95 -60 -17 0 -20 -6 -20 -49 l0 -50
-45 -7 c-25 -3 -47 -5 -49 -3 -5 5 14 310 19 327 5 14 102 17 138 3z m-584
-12 c22 -8 30 -16 27 -28 -2 -9 -7 -31 -11 -48 -8 -38 -7 -38 -45 -18 -31 16
-60 11 -60 -11 0 -14 18 -28 91 -73 29 -18 49 -39 53 -54 20 -81 -82 -141
-183 -106 -35 12 -37 22 -16 73 15 36 16 36 45 21 16 -8 41 -15 55 -15 43 0
26 30 -37 67 -80 47 -104 97 -74 152 26 47 88 63 155 40z m-288 -29 c16 -9 18
-18 13 -53 -4 -23 -8 -43 -9 -45 -2 -2 -19 1 -38 6 -19 6 -41 6 -48 1 -24 -14
3 -41 74 -76 51 -25 68 -39 73 -59 21 -82 -78 -146 -183 -118 -26 7 -27 14
-12 67 8 30 14 37 27 32 9 -4 34 -9 55 -12 36 -5 39 -4 35 17 -2 17 -16 27
-53 42 -61 23 -105 68 -105 106 1 36 21 72 51 88 29 16 93 18 120 4z m-259
-85 c3 -48 5 -46 -54 -59 -22 -5 -28 -12 -28 -34 0 -43 12 -55 45 -42 15 6 30
8 34 5 7 -8 -20 -25 -41 -25 -24 0 -28 -11 -21 -54 l6 -36 44 26 c25 14 46 24
47 22 4 -6 25 -82 23 -84 -7 -4 -169 -45 -171 -42 -12 15 -67 311 -60 317 10
10 130 49 155 50 13 1 18 -10 21 -44z m955 13 c-3 -8 -6 -5 -6 6 -1 11 2 17 5
13 3 -3 4 -12 1 -19z m-593 -45 c7 -46 8 -103 1 -103 -10 0 -74 76 -75 88 0
27 21 52 44 52 19 0 24 -7 30 -37z m-661 -12 c21 -8 26 -18 29 -56 l3 -47 -33
6 c-68 11 -101 -27 -88 -98 7 -35 55 -86 81 -86 22 0 37 28 33 61 -4 25 0 33
23 45 34 17 58 19 42 3 -6 -6 -9 -28 -6 -50 15 -111 -98 -171 -183 -97 -49 43
-74 100 -74 168 0 113 83 185 173 151z m402 -47 c20 -20 21 -24 7 -25 -10 0
-12 -3 -4 -6 20 -8 13 -25 -8 -18 -23 7 -26 -7 -5 -25 8 -7 12 -17 8 -24 -4
-6 -8 -17 -8 -25 0 -33 -25 -20 -35 19 -6 22 -15 38 -19 35 -5 -2 -12 11 -15
30 -7 38 -12 40 -50 26 -17 -7 -26 -7 -29 2 -5 15 80 46 111 39 13 -2 34 -15
47 -28z m288 -16 l-11 -33 -1 45 c-1 33 2 41 11 32 8 -8 8 -20 1 -44z m82 -6
c-3 -3 -11 0 -18 7 -9 10 -8 11 6 5 10 -3 15 -9 12 -12z m-107 -63 c-6 -16
-12 -29 -13 -27 -6 6 8 58 16 58 4 0 3 -14 -3 -31z m-683 -39 c30 -60 32 -80
5 -80 -23 0 -60 53 -60 86 0 17 17 44 27 44 1 0 14 -22 28 -50z m335 45 c0 -2
-13 -11 -30 -20 -18 -9 -30 -11 -30 -5 0 6 10 15 23 20 26 10 37 12 37 5z
m607 -91 c1 -16 0 -23 -3 -16 -3 6 -11 9 -17 5 -18 -12 -108 -10 -103 2 2 6
20 9 41 8 30 -2 36 0 31 13 -4 12 -2 15 9 10 8 -3 15 -1 15 5 0 25 25 0 27
-27z m86 29 c-7 -2 -21 -2 -30 0 -10 3 -4 5 12 5 17 0 24 -2 18 -5z m-61 -28
c-2 -14 -6 -25 -8 -25 -2 0 -4 11 -4 25 0 14 4 25 9 25 4 0 6 -11 3 -25z m133
-4 c-3 -6 -16 -11 -28 -11 -21 0 -21 1 3 13 27 15 36 14 25 -2z m-669 -52 c-1
-40 -1 -40 -18 -19 -23 28 -23 44 0 35 14 -5 15 -4 5 6 -17 17 -16 30 1 23 8
-3 13 -20 12 -45z m21 9 c-3 -8 -6 -5 -6 6 -1 11 2 17 5 13 3 -3 4 -12 1 -19z
m729 -10 c-3 -13 -6 -31 -6 -40 0 -15 -9 -18 -45 -18 l-45 0 0 -124 c0 -120
-1 -124 -22 -130 -13 -3 -34 -6 -47 -6 -22 0 -23 3 -18 38 3 20 9 77 13 126
l7 89 -46 -6 c-46 -6 -47 -6 -47 21 0 50 12 57 117 63 54 3 109 6 122 7 20 2
22 -2 17 -20z m-331 -255 l-7 -73 -33 0 -33 0 -7 93 c-4 50 -7 121 -8 156 l-2
65 45 11 45 11 3 -95 c2 -53 0 -129 -3 -168z m-230 232 c59 -24 70 -100 24
-159 -22 -28 -21 -32 29 -94 36 -45 35 -55 -10 -66 -25 -6 -31 -1 -68 56 l-41
63 6 -40 c3 -22 8 -52 11 -66 5 -24 2 -27 -37 -33 -23 -4 -45 -3 -49 1 -10 12
-31 326 -23 334 23 21 113 24 158 4z m119 -117 c4 -62 9 -133 12 -158 l6 -45
-26 30 c-14 17 -37 46 -51 66 l-26 37 20 33 c22 37 27 98 11 130 -9 17 -7 19
18 19 l29 0 7 -112z m-375 45 c50 -189 39 -295 -35 -323 -94 -36 -155 38 -204
248 -8 31 -6 34 32 53 22 11 42 18 45 16 2 -3 11 -38 20 -79 20 -100 48 -161
70 -156 25 5 28 55 8 147 -10 41 -20 81 -22 88 -3 8 9 19 28 28 47 20 47 20
58 -22z m-93 -74 c6 -24 14 -66 18 -94 6 -45 5 -48 -8 -31 -13 16 -46 136 -46
166 0 29 26 -1 36 -41z"/>
<path d="M818 2413 c6 -2 18 -2 25 0 6 3 1 5 -13 5 -14 0 -19 -2 -12 -5z"/>
<path d="M1292 1013 c-16 -6 -42 -56 -42 -82 0 -64 58 -103 92 -61 27 34 25
114 -4 134 -24 17 -26 17 -46 9z"/>
<path d="M1580 985 c0 -63 15 -71 55 -30 42 41 28 85 -27 85 -27 0 -28 -1 -28
-55z m50 5 c0 -10 -4 -22 -10 -25 -6 -4 -10 7 -10 25 0 18 4 29 10 25 6 -3 10
-15 10 -25z"/>
<path d="M740 538 c0 -77 11 -88 49 -50 50 50 35 102 -28 102 -19 0 -21 -6
-21 -52z m49 -19 l-12 -24 -10 22 c-5 12 -7 30 -3 39 6 16 8 16 22 2 13 -13
14 -20 3 -39z"/>
<path d="M987 2295 c3 -19 0 -55 -7 -79 -8 -29 -9 -50 -2 -61 8 -15 9 -13 10
11 0 16 4 57 8 90 4 39 2 64 -4 68 -7 4 -9 -5 -5 -29z"/>
<path d="M1113 2310 c-13 -5 -23 -17 -23 -27 1 -17 1 -17 11 0 14 24 37 21 41
-5 3 -27 44 -36 77 -18 27 14 17 36 -21 49 -36 13 -55 13 -85 1z m103 -21 c3
-6 1 -16 -5 -22 -9 -9 -14 -8 -21 3 -5 8 -10 18 -10 23 0 11 28 8 36 -4z m-36
-19 c0 -5 -7 -10 -15 -10 -8 0 -15 5 -15 10 0 6 7 10 15 10 8 0 15 -4 15 -10z"/>
<path d="M841 2303 c0 -7 -9 -13 -18 -13 -15 0 -15 -1 1 -13 14 -10 16 -21 11
-50 -10 -50 -25 -47 -26 6 -2 32 -3 35 -6 13 -3 -16 5 -63 16 -105 11 -42 24
-105 29 -141 9 -60 9 -57 7 40 -2 58 -6 117 -10 131 -9 37 10 80 32 73 15 -5
16 -4 3 5 -13 9 -13 12 2 28 20 19 28 15 31 -16 2 -25 29 -28 47 -6 8 9 9 15
2 15 -6 0 -14 -5 -17 -10 -7 -11 -25 -4 -25 10 0 5 7 7 15 4 8 -4 15 -1 15 6
0 7 7 10 14 7 10 -4 13 -1 9 9 -8 21 -69 18 -93 -6 -25 -25 -28 -25 -33 3 -2
12 -5 16 -6 10z"/>
<path d="M1300 2199 c0 -19 -10 -43 -25 -61 -38 -45 -30 -57 10 -12 33 38 49
104 25 104 -5 0 -10 -14 -10 -31z"/>
<path d="M1431 2154 c-12 -20 -30 -38 -41 -41 -39 -10 -23 -41 39 -72 86 -44
203 -141 261 -218 68 -90 135 -228 160 -333 20 -86 26 -222 14 -314 -6 -40
-11 -49 -38 -60 -31 -13 -32 -16 -55 -135 -25 -131 -36 -154 -125 -256 -31
-36 -51 -53 -56 -45 -5 8 -28 9 -81 3 l-74 -8 -6 -70 c-3 -38 -9 -121 -13
-183 l-7 -112 59 0 59 0 27 167 c16 93 32 172 37 178 14 14 11 -25 -15 -193
l-23 -154 26 -10 c42 -17 148 -22 181 -8 64 27 91 106 54 159 -15 21 -15 24
11 51 41 43 39 103 -4 142 -31 27 -31 29 -15 53 12 18 22 24 35 20 14 -5 22 0
28 17 9 22 10 22 10 2 1 -19 9 -23 67 -29 36 -4 68 -5 70 -2 2 2 -9 37 -26 77
l-30 74 30 31 c54 55 59 126 13 177 -8 9 -12 25 -9 36 4 10 10 60 15 110 25
269 -59 528 -238 740 -57 68 -190 175 -263 212 l-56 29 -21 -35z m484 -1075
c65 -16 95 -48 95 -100 0 -36 -6 -48 -40 -80 l-39 -37 24 -61 c14 -33 25 -63
25 -66 0 -3 -17 -5 -39 -5 l-38 0 -18 65 c-9 36 -20 64 -22 61 -3 -3 -8 -29
-12 -58 l-6 -53 -45 3 c-24 2 -45 4 -46 5 -2 2 48 261 61 315 6 25 31 28 100
11z m-358 -446 c-3 -16 -15 -90 -28 -165 l-22 -138 -34 0 c-33 0 -33 0 -33 48
0 26 3 97 7 159 7 123 4 120 77 122 37 1 38 0 33 -26z m192 21 c45 -9 81 -47
81 -85 0 -24 -9 -41 -38 -68 l-38 -36 28 -23 c65 -54 6 -142 -96 -142 -39 0
-106 18 -106 29 0 12 39 271 46 304 5 24 10 27 49 27 23 0 56 -3 74 -6z"/>
<path d="M1877 1006 c-3 -7 -9 -34 -12 -60 -8 -51 -2 -55 44 -31 30 15 41 33
41 65 0 33 -62 55 -73 26z"/>
<path d="M1688 548 c-6 -55 -4 -59 33 -46 57 20 57 88 0 88 -27 0 -29 -3 -33
-42z m52 8 c0 -7 -7 -19 -15 -26 -13 -11 -15 -8 -15 14 0 16 5 26 15 26 8 0
15 -6 15 -14z"/>
<path d="M1666 419 c-12 -62 -9 -72 22 -65 26 7 52 31 52 48 0 13 -39 48 -54
48 -7 0 -16 -14 -20 -31z m44 -13 c0 -8 -4 -18 -10 -21 -5 -3 -10 3 -10 14 0
12 5 21 10 21 6 0 10 -6 10 -14z"/>
<path d="M1076 2164 c-11 -7 -16 -17 -13 -21 4 -4 15 1 24 10 22 21 14 30 -11
11z"/>
<path d="M1020 2140 c-8 -5 -10 -10 -5 -10 6 0 17 5 25 10 8 5 11 10 5 10 -5
0 -17 -5 -25 -10z"/>
<path d="M1178 2115 c-3 -3 -39 -12 -79 -20 l-74 -15 69 5 c44 3 76 10 85 20
8 8 13 15 10 15 -3 0 -8 -2 -11 -5z"/>
<path d="M1028 2043 c12 -2 32 -2 45 0 12 2 2 4 -23 4 -25 0 -35 -2 -22 -4z"/>
<path d="M1532 1788 c2 -7 28 -27 58 -44 30 -17 70 -50 88 -73 33 -44 45 -44
15 -1 -24 34 -63 67 -95 81 -16 6 -28 15 -28 20 0 5 -9 13 -20 19 -16 8 -20 8
-18 -2z"/>
<path d="M1452 1783 c-12 -5 -52 -74 -52 -90 0 -4 9 8 21 27 11 19 31 43 42
52 21 17 16 22 -11 11z"/>
<path d="M1737 1520 c3 -30 7 -57 9 -59 7 -8 2 64 -6 89 -6 16 -7 6 -3 -30z"/>
<path d="M1731 1438 c0 -9 -4 -25 -7 -35 -5 -17 -5 -17 6 0 6 10 9 25 7 35 -4
15 -5 15 -6 0z"/>
<path d="M795 1340 c22 -10 47 -19 55 -19 22 0 -30 25 -65 32 -26 6 -25 4 10
-13z"/>
<path d="M1920 473 c-46 -76 -90 -148 -98 -160 -13 -22 -12 -23 43 -48 73 -32
81 -31 94 5 15 44 34 38 29 -10 l-3 -39 55 -6 c30 -3 65 -8 78 -11 l22 -4 0
189 0 190 -38 10 c-104 28 -88 39 -182 -116z m194 90 c8 -5 -1 -323 -9 -331
-2 -2 -24 0 -49 3 l-46 7 6 38 c6 35 4 38 -22 44 -22 6 -31 3 -39 -9 -29 -49
-30 -49 -64 -35 -17 7 -34 17 -37 21 -3 5 32 70 77 145 l82 136 46 -7 c25 -4
50 -9 55 -12z"/>
<path d="M2017 458 c-28 -62 -34 -84 -25 -90 28 -17 37 -6 48 65 6 39 14 80
16 90 11 38 -5 13 -39 -65z"/>
<path d="M130 480 c-65 -22 -104 -62 -121 -122 -22 -83 23 -192 103 -249 73
-52 186 -20 235 67 l21 39 -64 53 c-35 29 -64 47 -64 40 0 -32 -22 -87 -37
-92 -37 -15 -90 77 -63 109 7 9 30 15 52 15 l40 0 -7 63 c-4 34 -11 67 -16 73
-5 6 -6 14 -2 17 11 12 -20 6 -77 -13z m64 -36 c3 -9 6 -28 6 -44 0 -24 -5
-29 -35 -34 -19 -4 -39 -15 -45 -26 -36 -67 32 -171 95 -146 9 3 23 22 31 41
l15 36 39 -31 c22 -18 40 -34 40 -36 0 -2 -16 -22 -36 -44 -84 -93 -206 -61
-259 67 -21 50 -19 132 4 167 38 57 130 89 145 50z"/>
</g>
</svg>
